<svg version="1.1" id="Layer_1" xmlns="http://www.w3.org/2000/svg" xmlns:xlink="http://www.w3.org/1999/xlink" x="0px" y="0px"
	 width="100%" viewBox="0 0 512 512" enable-background="new 0 0 512 512" xml:space="preserve">
<path fill="#000000" opacity="1.000000" stroke="none" 
	d="
M1.000002,231.000000 
	C1.000000,154.366898 1.000000,77.733795 1.000000,1.050347 
	C171.558380,1.050347 342.116760,1.050347 513.000000,1.050347 
	C513.000000,86.353951 513.000000,171.708313 512.737671,257.542206 
	C512.313232,258.087555 512.151001,258.153351 511.531097,258.154785 
	C342.550934,258.086487 174.028564,258.082275 5.506178,258.084473 
	C4.343538,258.084473 3.180898,258.172333 1.773152,258.120422 
	C1.352030,258.014435 1.176015,258.007202 1.000000,258.000000 
	C1.000000,251.312363 1.000000,244.624710 1.458963,237.394455 
	C6.064823,236.851837 10.211718,236.851837 14.333457,236.851837 
	C16.040424,232.049469 17.624866,227.591812 19.252640,223.012238 
	C27.792585,223.012238 36.256943,223.012238 44.648685,223.012238 
	C46.390984,227.453186 46.931892,233.259064 50.051357,235.542877 
	C53.195301,237.844574 58.900208,236.648224 64.090279,237.029099 
	C56.146400,215.141281 48.716324,194.669144 41.203892,173.970093 
	C35.902164,173.970093 30.737972,173.772491 25.609524,174.113052 
	C24.372335,174.195221 22.655794,175.835602 22.170534,177.136459 
	C15.756716,194.330276 9.542596,211.598495 3.190855,228.815765 
	C2.866950,229.693771 1.748511,230.278656 1.000002,231.000000 
M377.240997,173.963028 
	C371.758087,173.963028 366.275177,173.963028 360.567261,173.963028 
	C357.183380,186.902908 353.861450,199.605988 350.539490,212.309082 
	C348.892944,211.294922 348.193268,210.139664 347.863953,208.887054 
	C345.110779,198.413742 342.486176,187.906082 339.643341,177.457596 
	C339.288696,176.154144 337.937469,174.190811 336.963379,174.139481 
	C331.065887,173.828690 325.143829,173.984695 319.409973,173.984695 
	C319.409973,195.321060 319.409973,215.904236 319.409973,236.866760 
	C321.675476,236.866760 323.672119,236.652145 325.606079,236.909210 
	C330.365387,237.541809 332.483032,235.782822 331.739868,230.873047 
	C331.542664,229.570129 331.710663,228.211960 331.710663,226.879166 
	C331.710693,216.011673 331.710663,205.144196 331.710663,194.276703 
	C332.207825,194.219208 332.704987,194.161697 333.202148,194.104202 
	C335.858765,205.508347 338.514130,216.912796 341.172363,228.316559 
	C343.220428,237.102661 343.221100,237.022812 352.287231,236.916473 
	C354.985352,236.884811 356.339783,236.388718 356.931519,233.268585 
	C358.643951,224.239273 360.856720,215.303452 362.939911,206.346466 
	C363.898590,202.224686 365.013214,198.139175 366.057098,194.037231 
	C366.618103,194.115372 367.179077,194.193527 367.740051,194.271683 
	C367.740051,208.318649 367.740051,222.365631 367.740051,236.866867 
	C371.412781,236.866867 374.213562,236.759705 377.002350,236.896866 
	C379.814941,237.035187 380.795135,235.874283 380.783112,233.075851 
	C380.703003,214.417023 380.782196,195.757339 380.631531,177.099380 
	C380.623047,176.050247 379.037415,175.013855 377.240997,173.963028 
M116.356850,236.863052 
	C117.784195,236.761398 119.211548,236.659744 120.606781,236.560379 
	C120.606781,215.531158 120.606781,194.956940 120.606781,174.218964 
	C116.455322,174.218964 112.548332,174.218964 107.990662,174.218964 
	C107.990662,187.226898 107.990662,199.998383 107.990662,214.114471 
	C99.842110,200.805542 92.509010,188.770264 85.081779,176.793350 
	C84.386978,175.672943 83.156273,174.215317 82.073639,174.125259 
	C78.185226,173.801804 74.253555,173.998367 70.441086,173.998367 
	C70.441086,195.285004 70.441086,215.848969 70.441086,236.369003 
	C82.804283,238.122574 82.804276,238.122574 82.804214,226.562424 
	C82.804207,224.564713 82.804214,222.567001 82.804214,220.569290 
	C82.804214,213.690750 82.804222,206.812225 82.804222,199.933685 
	C83.255295,199.786514 83.706367,199.639359 84.157448,199.492188 
	C84.934929,200.558762 85.790108,201.577713 86.477638,202.699402 
	C92.136497,211.931732 98.001869,221.049530 103.305511,230.482681 
	C106.141762,235.527252 109.606171,238.110397 116.356850,236.863052 
M456.287018,222.484924 
	C456.286469,226.149033 456.075623,229.832199 456.404999,233.466415 
	C456.513245,234.660934 457.911469,236.569656 458.908630,236.699310 
	C462.113922,237.115997 465.407379,236.854340 469.342285,236.854340 
	C469.342285,223.712051 469.342285,211.278702 469.342285,197.375732 
	C476.704315,209.190704 483.143158,219.640503 489.703430,230.013519 
	C494.469086,237.548920 497.801056,238.650894 506.626465,236.066833 
	C506.626465,215.445358 506.626465,194.861877 506.626465,174.296463 
	C502.433685,174.296463 498.529510,174.296463 493.966522,174.296463 
	C493.966522,187.053986 493.966522,199.492279 493.966522,212.870117 
	C492.782806,211.487885 492.290771,211.045212 491.957458,210.504669 
	C484.980103,199.189453 478.052094,187.843552 471.007660,176.570358 
	C470.327637,175.482147 469.000488,174.188065 467.882111,174.095444 
	C464.140564,173.785538 460.357452,173.977905 456.287018,173.977905 
	C456.287018,190.237747 456.287018,205.864075 456.287018,222.484924 
M154.780777,182.040512 
	C161.103882,182.058517 165.786514,184.541428 167.516571,190.769745 
	C172.091248,190.769745 176.228470,190.769745 180.536133,190.769745 
	C179.461090,182.017334 175.771545,175.334259 166.924576,173.336960 
	C161.847275,172.190704 156.457962,172.105865 151.209686,172.111038 
	C142.873413,172.119247 134.501755,178.742050 133.219681,185.837509 
	C131.479446,195.468582 136.101868,203.516571 145.595734,206.853470 
	C151.141815,208.802811 156.875336,210.214798 162.442947,212.108414 
	C165.562637,213.169464 169.447754,214.681137 168.864014,218.499680 
	C168.438309,221.284348 166.186127,224.625885 163.762436,226.117950 
	C155.250702,231.358017 146.362915,226.921310 142.884872,215.703476 
	C138.998062,216.265045 135.006683,216.841721 131.073608,217.409973 
	C131.397858,226.839417 136.872253,234.679718 144.349411,236.801453 
	C152.249496,239.043228 160.077652,239.700806 168.153229,237.031342 
	C175.357956,234.649734 180.347610,230.135391 181.673019,222.916718 
	C183.171936,214.753082 182.138977,206.496277 173.701523,202.232559 
	C167.632141,199.165512 160.911606,197.353409 154.416412,195.175735 
	C150.705902,193.931702 146.093597,193.554489 145.863220,188.534393 
	C145.618683,183.205826 150.827271,183.797211 154.780777,182.040512 
M241.224915,236.833511 
	C241.792435,235.744705 242.846100,234.659424 242.854004,233.566559 
	C242.960068,218.908020 242.919846,204.248413 242.916687,189.589081 
	C242.915588,184.511154 242.916519,179.433243 242.916519,174.259247 
	C238.456894,174.259247 234.394180,174.259247 230.052628,174.259247 
	C230.052628,181.016144 230.187256,187.489075 229.946716,193.948013 
	C229.894379,195.353470 228.549484,197.868988 227.714111,197.905411 
	C220.473816,198.221237 213.213913,198.087372 205.552444,198.087372 
	C205.552444,189.621597 205.552444,181.877380 205.552444,174.215851 
	C201.002228,174.215851 196.888763,174.215851 192.330109,174.215851 
	C192.330109,176.084244 192.330093,177.708466 192.330109,179.332703 
	C192.330170,194.658401 192.330231,209.984116 192.330276,225.309814 
	C192.330292,237.662430 192.330536,237.665527 204.738083,236.690399 
	C205.016525,236.668518 205.271744,236.351227 205.877838,235.942322 
	C205.877838,227.235550 205.877838,218.303131 205.877838,209.158936 
	C214.088028,209.158936 221.949356,209.158936 230.313034,209.158936 
	C230.313034,218.565811 230.313034,227.624252 230.313034,236.861786 
	C233.971436,236.861786 237.126587,236.861786 241.224915,236.833511 
M428.270020,178.070740 
	C426.973999,176.705368 425.771912,174.287750 424.365204,174.162186 
	C419.109070,173.692993 413.785858,173.974625 408.648773,173.974625 
	C401.117828,194.947632 393.752258,215.460052 386.361908,236.041489 
	C397.394073,238.567184 399.295624,237.631866 402.961243,228.335083 
	C403.261627,227.573303 403.336151,226.603287 403.861816,226.073654 
	C405.046997,224.879669 406.362823,223.143173 407.779968,222.981552 
	C411.555969,222.550919 415.413605,222.836044 419.238770,222.836090 
	C430.440674,222.836227 430.392700,222.853577 434.169708,233.245468 
	C434.658203,234.589462 435.855591,236.566040 436.881134,236.667511 
	C440.906158,237.065750 444.993866,236.830444 449.535431,236.830444 
	C442.367615,216.865250 435.527863,197.813889 428.270020,178.070740 
M293.124786,203.497406 
	C293.111053,208.324509 293.285889,213.161499 293.032959,217.976044 
	C292.754333,223.280487 288.938629,227.217896 283.792572,228.039307 
	C278.674011,228.856308 271.609253,225.994293 270.371490,221.838669 
	C269.260834,218.109711 268.979797,214.038010 268.922333,210.108871 
	C268.747955,198.183182 268.859192,186.253296 268.859192,174.352997 
	C264.285614,174.352997 260.248260,174.352997 256.180695,174.352997 
	C256.180695,189.541046 256.089294,204.346634 256.229340,219.150024 
	C256.279633,224.467331 258.405853,229.081650 262.399597,232.731613 
	C269.866943,239.556229 279.103333,239.549957 288.093170,238.392990 
	C299.573151,236.915558 305.283173,230.164658 305.840057,218.813660 
	C306.335205,208.721680 306.519043,198.613312 306.754028,188.510162 
	C306.864716,183.750839 306.773041,178.986816 306.773041,174.290268 
	C301.874542,174.290268 297.628998,174.290268 293.124756,174.290268 
	C293.124756,183.907410 293.124756,193.202850 293.124786,203.497406 
z"/>
<path fill="#000000" opacity="1.000000" stroke="none" 
	d="
M513.000000,358.000000 
	C513.000000,409.639160 513.000000,461.278320 513.000000,512.958740 
	C342.451752,512.958740 171.903488,512.958740 1.000000,512.958740 
	C1.000000,461.646332 1.000000,410.291809 1.468649,358.471741 
	C172.291534,358.004150 342.645752,358.002075 513.000000,358.000000 
z"/>
<path fill="#F1E8D6" opacity="1.000000" stroke="none" 
	d="
M513.000000,357.531342 
	C342.645752,358.002075 172.291534,358.004150 1.468649,358.003113 
	C1.000000,325.645782 1.000000,293.291534 1.462638,260.469727 
	C172.283524,260.001404 342.641754,260.000702 513.000000,260.000000 
	C513.000000,292.354218 513.000000,324.708466 513.000000,357.531342 
M141.219406,337.071350 
	C141.400375,337.309448 141.581360,337.547516 142.408447,338.193512 
	C144.994888,338.462708 147.591705,338.657867 150.165375,339.018280 
	C154.132828,339.573792 155.335312,337.994141 155.272705,333.991852 
	C155.046051,319.501007 155.175705,305.004456 155.193375,290.510071 
	C155.195114,289.086639 155.351059,287.663391 155.445480,286.070312 
	C160.255676,286.070312 164.604645,285.791260 168.900620,286.148743 
	C173.203049,286.506775 174.166550,284.817108 174.238464,280.764282 
	C174.315063,276.445282 173.045166,274.873932 168.680542,274.947815 
	C157.021729,275.145233 145.357391,275.015137 133.695236,275.015137 
	C123.105095,275.015137 123.105095,275.015106 124.216545,286.830719 
	C125.724884,287.222900 127.223442,287.901001 128.743423,287.952972 
	C133.062805,288.100800 137.390961,287.993073 141.889679,288.907715 
	C141.821381,304.904419 141.753098,320.901093 141.219406,337.071350 
M378.381866,278.969299 
	C376.490326,277.984131 374.674835,276.799103 372.695099,276.045532 
	C357.467957,270.248932 337.347229,274.114075 331.601013,293.266052 
	C328.827454,302.510071 328.759186,311.672363 331.585571,320.942505 
	C334.973114,332.053192 342.733673,338.462830 353.752502,340.015228 
	C365.843201,341.718689 376.935577,339.509338 384.701019,328.332092 
	C392.372467,317.290131 393.549896,291.507843 378.381866,278.969299 
M268.609833,311.499756 
	C268.609833,320.407867 268.609833,329.315948 268.609833,339.664764 
	C279.932648,338.929413 291.269165,338.598511 302.499695,337.329529 
	C310.785675,336.393250 315.846252,330.535797 318.617401,323.072388 
	C322.668518,312.161682 322.298645,301.109802 318.197083,290.241302 
	C315.388062,282.797943 310.076538,277.365723 302.215881,276.521637 
	C291.560333,275.377380 280.756165,275.599182 270.013428,275.326141 
	C269.333496,275.308868 268.633514,276.078308 268.609833,276.092133 
	C268.609833,282.252014 268.609863,287.881287 268.609833,293.510529 
	C268.609833,299.173584 268.609802,304.836670 268.609833,311.499756 
M114.076942,289.082092 
	C112.752426,286.483429 111.616173,283.766449 110.070145,281.307037 
	C104.027557,271.694611 82.837799,271.721069 74.616272,277.546234 
	C69.196121,281.386597 66.825539,286.816528 67.219864,293.099976 
	C67.609177,299.303650 70.556938,304.633270 76.588188,307.092590 
	C83.199638,309.788452 90.204887,311.525604 96.789330,314.276947 
	C99.195770,315.282501 101.710808,317.654480 102.702820,320.020813 
	C104.044395,323.220978 101.997185,326.043915 99.002121,327.845551 
	C90.728783,332.822418 81.716194,329.677185 77.980515,320.747437 
	C77.445839,319.469330 75.439110,317.852600 74.279404,317.974121 
	C71.135017,318.303711 68.073380,319.462433 65.005981,320.382538 
	C64.832634,320.434570 64.771034,321.327606 64.878357,321.776337 
	C66.409790,328.179657 69.227509,333.669556 75.225410,337.134949 
	C82.401138,341.280823 90.303902,341.050201 97.874527,340.023438 
	C117.031242,337.425232 120.011787,318.099792 112.296204,308.053284 
	C108.636147,303.287476 103.413872,301.648773 98.138329,299.903900 
	C93.026817,298.213318 87.771690,296.850677 82.855644,294.710144 
	C79.135391,293.090302 78.466782,288.834778 81.240463,286.755554 
	C86.685852,282.673584 97.118279,282.497833 100.847221,290.467194 
	C101.324684,291.487579 102.378616,292.848846 103.284348,292.946167 
	C106.246346,293.264496 109.286575,293.273376 112.242592,292.932220 
	C112.974319,292.847748 113.501381,290.989868 114.076942,289.082092 
M435.661011,321.390594 
	C434.049744,323.573547 432.858765,326.364594 430.747314,327.823853 
	C424.760986,331.961182 413.503021,330.769501 410.308136,321.329315 
	C409.030670,317.554626 399.960144,316.629791 397.487885,319.834808 
	C397.091278,320.348969 397.084534,321.382294 397.259827,322.085266 
	C399.001923,329.070709 402.110901,335.687775 409.323120,337.746643 
	C415.844086,339.608185 423.051575,340.623352 429.757263,339.969727 
	C446.011292,338.385437 452.059296,323.159943 446.180542,310.674683 
	C443.023041,303.968750 436.697266,302.005493 430.430939,299.913696 
	C425.331421,298.211334 420.129364,296.762115 415.174500,294.712860 
	C413.658997,294.086060 411.945557,291.863770 411.911835,290.337067 
	C411.880829,288.932556 413.701630,286.975372 415.197357,286.133972 
	C423.392303,281.524170 429.197174,283.668976 434.249512,292.771912 
	C438.241699,292.771912 442.161621,292.771912 446.065491,292.771912 
	C446.283112,284.478149 441.684570,276.891479 433.450897,275.362091 
	C426.231689,274.021179 418.331390,274.124573 411.131561,275.574463 
	C404.881439,276.833069 400.550446,282.015503 399.742676,289.017456 
	C398.850647,296.750092 400.921967,303.308624 408.313995,306.858795 
	C412.979858,309.099670 418.096832,310.386536 422.963409,312.228363 
	C427.816986,314.065247 433.930756,314.075134 435.661011,321.390594 
M180.629669,281.611511 
	C180.668579,294.435150 180.582642,307.260742 180.786026,320.081757 
	C180.947708,330.272705 186.032242,336.936615 195.941864,339.169373 
	C200.857071,340.276825 206.221039,340.740845 211.158493,340.002136 
	C215.623901,339.334076 220.344437,337.382874 223.966537,334.677429 
	C231.947220,328.716644 230.205856,319.394562 230.420090,311.039642 
	C230.717041,299.459351 230.494690,287.865692 230.494690,275.614258 
	C228.439301,275.434570 226.039032,275.233307 223.640472,275.013184 
	C219.417603,274.625610 217.429535,275.856995 217.590698,280.775543 
	C217.977707,292.588013 217.857925,304.424377 217.637985,316.245453 
	C217.560104,320.432007 217.641068,324.983185 213.363831,327.771118 
	C208.987961,330.623413 204.489639,330.636566 199.768097,328.659912 
	C194.920929,326.630676 193.381897,322.515198 193.301056,317.895660 
	C193.082504,305.408112 193.051514,292.913177 193.229294,280.425171 
	C193.285126,276.503296 192.532761,274.499603 188.049652,274.932404 
	C184.175034,275.306396 179.431274,273.909943 180.629669,281.611511 
M243.806519,298.500000 
	C243.806519,308.471558 243.677734,318.445221 243.839417,328.414185 
	C244.037643,340.636963 241.279968,338.869110 254.650055,338.956390 
	C255.093292,338.959290 255.538452,338.665771 256.272461,338.409119 
	C256.272461,318.326080 256.323608,298.240387 256.128662,278.157043 
	C256.118408,277.099823 254.182297,275.612488 252.852570,275.136963 
	C251.379059,274.610107 249.571457,275.037903 247.909943,275.012115 
	C244.800781,274.963898 243.602890,276.314514 243.735352,279.554108 
	C243.979553,285.527100 243.806000,291.517151 243.806519,298.500000 
z"/>
<path fill="#E9E1D0" opacity="1.000000" stroke="none" 
	d="
M1.000002,231.428467 
	C1.748511,230.278656 2.866950,229.693771 3.190855,228.815765 
	C9.542596,211.598495 15.756716,194.330276 22.170534,177.136459 
	C22.655794,175.835602 24.372335,174.195221 25.609524,174.113052 
	C30.737972,173.772491 35.902164,173.970093 41.203892,173.970093 
	C48.716324,194.669144 56.146400,215.141281 64.090279,237.029099 
	C58.900208,236.648224 53.195301,237.844574 50.051357,235.542877 
	C46.931892,233.259064 46.390984,227.453186 44.648685,223.012238 
	C36.256943,223.012238 27.792585,223.012238 19.252640,223.012238 
	C17.624866,227.591812 16.040424,232.049469 14.333457,236.851837 
	C10.211718,236.851837 6.064823,236.851837 1.458963,236.925919 
	C1.000000,235.285645 1.000000,233.571289 1.000002,231.428467 
M34.682865,192.899567 
	C33.883377,190.778915 33.083889,188.658279 31.798147,185.247833 
	C28.477108,195.070572 25.671938,203.367508 22.765312,211.964508 
	C29.026127,211.964508 34.826580,211.964508 40.931950,211.964508 
	C38.929726,205.740601 36.981461,199.684433 34.682865,192.899567 
z"/>
<path fill="#FFF9E6" opacity="1.000000" stroke="none" 
	d="
M513.000000,259.750000 
	C342.641754,260.000702 172.283524,260.001404 1.462638,260.001038 
	C1.000000,260.000000 1.000000,259.500000 1.216521,259.190247 
	C1.709476,258.732086 1.904548,258.511627 2.018259,258.219177 
	C3.180898,258.172333 4.343538,258.084473 5.506178,258.084473 
	C174.028564,258.082275 342.550934,258.086487 511.645325,258.347107 
	C512.425110,258.840790 512.686035,258.972839 513.000000,259.000000 
	C513.000000,259.000000 513.000000,259.500000 513.000000,259.750000 
z"/>
<path fill="#DED6C6" opacity="1.000000" stroke="none" 
	d="
M513.000000,258.750000 
	C512.686035,258.972839 512.425110,258.840790 512.103088,258.411499 
	C512.151001,258.153351 512.313232,258.087555 512.737671,258.010864 
	C513.000000,258.000000 513.000000,258.500000 513.000000,258.750000 
z"/>
<path fill="#DED6C6" opacity="1.000000" stroke="none" 
	d="
M1.773152,258.120422 
	C1.904548,258.511627 1.709476,258.732086 1.216521,258.940247 
	C1.000000,259.000000 1.000000,258.500000 1.000000,258.250000 
	C1.176015,258.007202 1.352030,258.014435 1.773152,258.120422 
z"/>
<path fill="#E8DFCE" opacity="1.000000" stroke="none" 
	d="
M377.713409,173.967285 
	C379.037415,175.013855 380.623047,176.050247 380.631531,177.099380 
	C380.782196,195.757339 380.703003,214.417023 380.783112,233.075851 
	C380.795135,235.874283 379.814941,237.035187 377.002350,236.896866 
	C374.213562,236.759705 371.412781,236.866867 367.740051,236.866867 
	C367.740051,222.365631 367.740051,208.318649 367.740051,194.271683 
	C367.179077,194.193527 366.618103,194.115372 366.057098,194.037231 
	C365.013214,198.139175 363.898590,202.224686 362.939911,206.346466 
	C360.856720,215.303452 358.643951,224.239273 356.931519,233.268585 
	C356.339783,236.388718 354.985352,236.884811 352.287231,236.916473 
	C343.221100,237.022812 343.220428,237.102661 341.172363,228.316559 
	C338.514130,216.912796 335.858765,205.508347 333.202148,194.104202 
	C332.704987,194.161697 332.207825,194.219208 331.710663,194.276703 
	C331.710663,205.144196 331.710693,216.011673 331.710663,226.879166 
	C331.710663,228.211960 331.542664,229.570129 331.739868,230.873047 
	C332.483032,235.782822 330.365387,237.541809 325.606079,236.909210 
	C323.672119,236.652145 321.675476,236.866760 319.409973,236.866760 
	C319.409973,215.904236 319.409973,195.321060 319.409973,173.984695 
	C325.143829,173.984695 331.065887,173.828690 336.963379,174.139481 
	C337.937469,174.190811 339.288696,176.154144 339.643341,177.457596 
	C342.486176,187.906082 345.110779,198.413742 347.863953,208.887054 
	C348.193268,210.139664 348.892944,211.294922 350.539490,212.309082 
	C353.861450,199.605988 357.183380,186.902908 360.567261,173.963028 
	C366.275177,173.963028 371.758087,173.963028 377.713409,173.967285 
z"/>
<path fill="#E9E0CF" opacity="1.000000" stroke="none" 
	d="
M115.893539,236.863068 
	C109.606171,238.110397 106.141762,235.527252 103.305511,230.482681 
	C98.001869,221.049530 92.136497,211.931732 86.477638,202.699402 
	C85.790108,201.577713 84.934929,200.558762 84.157448,199.492188 
	C83.706367,199.639359 83.255295,199.786514 82.804222,199.933685 
	C82.804222,206.812225 82.804214,213.690750 82.804214,220.569290 
	C82.804214,222.567001 82.804207,224.564713 82.804214,226.562424 
	C82.804276,238.122574 82.804283,238.122574 70.441086,236.369003 
	C70.441086,215.848969 70.441086,195.285004 70.441086,173.998367 
	C74.253555,173.998367 78.185226,173.801804 82.073639,174.125259 
	C83.156273,174.215317 84.386978,175.672943 85.081779,176.793350 
	C92.509010,188.770264 99.842110,200.805542 107.990662,214.114471 
	C107.990662,199.998383 107.990662,187.226898 107.990662,174.218964 
	C112.548332,174.218964 116.455322,174.218964 120.606781,174.218964 
	C120.606781,194.956940 120.606781,215.531158 120.606781,236.560379 
	C119.211548,236.659744 117.784195,236.761398 115.893539,236.863068 
z"/>
<path fill="#E8E0CF" opacity="1.000000" stroke="none" 
	d="
M456.287018,221.987656 
	C456.287018,205.864075 456.287018,190.237747 456.287018,173.977905 
	C460.357452,173.977905 464.140564,173.785538 467.882111,174.095444 
	C469.000488,174.188065 470.327637,175.482147 471.007660,176.570358 
	C478.052094,187.843552 484.980103,199.189453 491.957458,210.504669 
	C492.290771,211.045212 492.782806,211.487885 493.966522,212.870117 
	C493.966522,199.492279 493.966522,187.053986 493.966522,174.296463 
	C498.529510,174.296463 502.433685,174.296463 506.626465,174.296463 
	C506.626465,194.861877 506.626465,215.445358 506.626465,236.066833 
	C497.801056,238.650894 494.469086,237.548920 489.703430,230.013519 
	C483.143158,219.640503 476.704315,209.190704 469.342285,197.375732 
	C469.342285,211.278702 469.342285,223.712051 469.342285,236.854340 
	C465.407379,236.854340 462.113922,237.115997 458.908630,236.699310 
	C457.911469,236.569656 456.513245,234.660934 456.404999,233.466415 
	C456.075623,229.832199 456.286469,226.149033 456.287018,221.987656 
z"/>
<path fill="#E9E0CF" opacity="1.000000" stroke="none" 
	d="
M154.389877,182.148102 
	C150.827271,183.797211 145.618683,183.205826 145.863220,188.534393 
	C146.093597,193.554489 150.705902,193.931702 154.416412,195.175735 
	C160.911606,197.353409 167.632141,199.165512 173.701523,202.232559 
	C182.138977,206.496277 183.171936,214.753082 181.673019,222.916718 
	C180.347610,230.135391 175.357956,234.649734 168.153229,237.031342 
	C160.077652,239.700806 152.249496,239.043228 144.349411,236.801453 
	C136.872253,234.679718 131.397858,226.839417 131.073608,217.409973 
	C135.006683,216.841721 138.998062,216.265045 142.884872,215.703476 
	C146.362915,226.921310 155.250702,231.358017 163.762436,226.117950 
	C166.186127,224.625885 168.438309,221.284348 168.864014,218.499680 
	C169.447754,214.681137 165.562637,213.169464 162.442947,212.108414 
	C156.875336,210.214798 151.141815,208.802811 145.595734,206.853470 
	C136.101868,203.516571 131.479446,195.468582 133.219681,185.837509 
	C134.501755,178.742050 142.873413,172.119247 151.209686,172.111038 
	C156.457962,172.105865 161.847275,172.190704 166.924576,173.336960 
	C175.771545,175.334259 179.461090,182.017334 180.536133,190.769745 
	C176.228470,190.769745 172.091248,190.769745 167.516571,190.769745 
	C165.786514,184.541428 161.103882,182.058517 154.389877,182.148102 
z"/>
<path fill="#E9E1D0" opacity="1.000000" stroke="none" 
	d="
M240.753326,236.847656 
	C237.126587,236.861786 233.971436,236.861786 230.313034,236.861786 
	C230.313034,227.624252 230.313034,218.565811 230.313034,209.158936 
	C221.949356,209.158936 214.088028,209.158936 205.877838,209.158936 
	C205.877838,218.303131 205.877838,227.235550 205.877838,235.942322 
	C205.271744,236.351227 205.016525,236.668518 204.738083,236.690399 
	C192.330536,237.665527 192.330292,237.662430 192.330276,225.309814 
	C192.330231,209.984116 192.330170,194.658401 192.330109,179.332703 
	C192.330093,177.708466 192.330109,176.084244 192.330109,174.215851 
	C196.888763,174.215851 201.002228,174.215851 205.552444,174.215851 
	C205.552444,181.877380 205.552444,189.621597 205.552444,198.087372 
	C213.213913,198.087372 220.473816,198.221237 227.714111,197.905411 
	C228.549484,197.868988 229.894379,195.353470 229.946716,193.948013 
	C230.187256,187.489075 230.052628,181.016144 230.052628,174.259247 
	C234.394180,174.259247 238.456894,174.259247 242.916519,174.259247 
	C242.916519,179.433243 242.915588,184.511154 242.916687,189.589081 
	C242.919846,204.248413 242.960068,218.908020 242.854004,233.566559 
	C242.846100,234.659424 241.792435,235.744705 240.753326,236.847656 
z"/>
<path fill="#E9E1D0" opacity="1.000000" stroke="none" 
	d="
M428.479065,178.416626 
	C435.527863,197.813889 442.367615,216.865250 449.535431,236.830444 
	C444.993866,236.830444 440.906158,237.065750 436.881134,236.667511 
	C435.855591,236.566040 434.658203,234.589462 434.169708,233.245468 
	C430.392700,222.853577 430.440674,222.836227 419.238770,222.836090 
	C415.413605,222.836044 411.555969,222.550919 407.779968,222.981552 
	C406.362823,223.143173 405.046997,224.879669 403.861816,226.073654 
	C403.336151,226.603287 403.261627,227.573303 402.961243,228.335083 
	C399.295624,237.631866 397.394073,238.567184 386.361908,236.041489 
	C393.752258,215.460052 401.117828,194.947632 408.648773,173.974625 
	C413.785858,173.974625 419.109070,173.692993 424.365204,174.162186 
	C425.771912,174.287750 426.973999,176.705368 428.479065,178.416626 
M412.644104,200.098785 
	C411.282379,203.891678 409.920685,207.684586 408.456390,211.763153 
	C414.756744,211.763153 420.401825,211.763153 426.706940,211.763153 
	C423.675018,203.069733 420.835663,194.928406 417.996307,186.787079 
	C417.592255,186.820480 417.188171,186.853882 416.784119,186.887283 
	C415.449951,191.026276 414.115784,195.165268 412.644104,200.098785 
z"/>
<path fill="#E9E0CF" opacity="1.000000" stroke="none" 
	d="
M293.124756,202.997849 
	C293.124756,193.202850 293.124756,183.907410 293.124756,174.290268 
	C297.628998,174.290268 301.874542,174.290268 306.773041,174.290268 
	C306.773041,178.986816 306.864716,183.750839 306.754028,188.510162 
	C306.519043,198.613312 306.335205,208.721680 305.840057,218.813660 
	C305.283173,230.164658 299.573151,236.915558 288.093170,238.392990 
	C279.103333,239.549957 269.866943,239.556229 262.399597,232.731613 
	C258.405853,229.081650 256.279633,224.467331 256.229340,219.150024 
	C256.089294,204.346634 256.180695,189.541046 256.180695,174.352997 
	C260.248260,174.352997 264.285614,174.352997 268.859192,174.352997 
	C268.859192,186.253296 268.747955,198.183182 268.922333,210.108871 
	C268.979797,214.038010 269.260834,218.109711 270.371490,221.838669 
	C271.609253,225.994293 278.674011,228.856308 283.792572,228.039307 
	C288.938629,227.217896 292.754333,223.280487 293.032959,217.976044 
	C293.285889,213.161499 293.111053,208.324509 293.124756,202.997849 
z"/>
<path fill="#000000" opacity="1.000000" stroke="none" 
	d="
M378.683899,279.186340 
	C393.549896,291.507843 392.372467,317.290131 384.701019,328.332092 
	C376.935577,339.509338 365.843201,341.718689 353.752502,340.015228 
	C342.733673,338.462830 334.973114,332.053192 331.585571,320.942505 
	C328.759186,311.672363 328.827454,302.510071 331.601013,293.266052 
	C337.347229,274.114075 357.467957,270.248932 372.695099,276.045532 
	C374.674835,276.799103 376.490326,277.984131 378.683899,279.186340 
M343.311890,298.979309 
	C341.749329,306.792145 342.009766,314.437592 346.057434,321.508484 
	C349.455963,327.445435 354.629181,330.779541 361.623718,329.800598 
	C367.411926,328.990479 371.779144,326.034973 374.225342,320.257538 
	C377.185303,313.266571 377.008667,306.332764 376.099426,298.960724 
	C375.071960,290.630463 367.715363,284.284302 360.216370,284.163544 
	C352.173462,284.034027 345.552368,289.651825 343.311890,298.979309 
z"/>
<path fill="#000000" opacity="1.000000" stroke="none" 
	d="
M268.609802,310.999756 
	C268.609802,304.836670 268.609833,299.173584 268.609833,293.510529 
	C268.609863,287.881287 268.609833,282.252014 268.609833,276.092133 
	C268.633514,276.078308 269.333496,275.308868 270.013428,275.326141 
	C280.756165,275.599182 291.560333,275.377380 302.215881,276.521637 
	C310.076538,277.365723 315.388062,282.797943 318.197083,290.241302 
	C322.298645,301.109802 322.668518,312.161682 318.617401,323.072388 
	C315.846252,330.535797 310.785675,336.393250 302.499695,337.329529 
	C291.269165,338.598511 279.932648,338.929413 268.609833,339.664764 
	C268.609833,329.315948 268.609833,320.407867 268.609802,310.999756 
M281.135132,307.499908 
	C281.135132,314.238190 281.135132,320.976501 281.135132,327.722534 
	C282.444122,327.846619 283.094757,327.959900 283.745667,327.961487 
	C287.565979,327.970886 291.388672,328.034668 295.206268,327.927765 
	C301.250427,327.758545 306.019897,323.852539 306.769653,317.854034 
	C307.443085,312.466125 307.831970,306.972839 307.601410,301.557770 
	C307.237610,293.013702 302.796448,287.038605 296.238464,286.294922 
	C291.376862,285.743622 286.402496,286.186493 281.135132,286.186493 
	C281.135132,293.278473 281.135132,299.889282 281.135132,307.499908 
z"/>
<path fill="#000000" opacity="1.000000" stroke="none" 
	d="
M114.099731,289.514648 
	C113.501381,290.989868 112.974319,292.847748 112.242592,292.932220 
	C109.286575,293.273376 106.246346,293.264496 103.284348,292.946167 
	C102.378616,292.848846 101.324684,291.487579 100.847221,290.467194 
	C97.118279,282.497833 86.685852,282.673584 81.240463,286.755554 
	C78.466782,288.834778 79.135391,293.090302 82.855644,294.710144 
	C87.771690,296.850677 93.026817,298.213318 98.138329,299.903900 
	C103.413872,301.648773 108.636147,303.287476 112.296204,308.053284 
	C120.011787,318.099792 117.031242,337.425232 97.874527,340.023438 
	C90.303902,341.050201 82.401138,341.280823 75.225410,337.134949 
	C69.227509,333.669556 66.409790,328.179657 64.878357,321.776337 
	C64.771034,321.327606 64.832634,320.434570 65.005981,320.382538 
	C68.073380,319.462433 71.135017,318.303711 74.279404,317.974121 
	C75.439110,317.852600 77.445839,319.469330 77.980515,320.747437 
	C81.716194,329.677185 90.728783,332.822418 99.002121,327.845551 
	C101.997185,326.043915 104.044395,323.220978 102.702820,320.020813 
	C101.710808,317.654480 99.195770,315.282501 96.789330,314.276947 
	C90.204887,311.525604 83.199638,309.788452 76.588188,307.092590 
	C70.556938,304.633270 67.609177,299.303650 67.219864,293.099976 
	C66.825539,286.816528 69.196121,281.386597 74.616272,277.546234 
	C82.837799,271.721069 104.027557,271.694611 110.070145,281.307037 
	C111.616173,283.766449 112.752426,286.483429 114.099731,289.514648 
z"/>
<path fill="#000000" opacity="1.000000" stroke="none" 
	d="
M435.661163,321.018860 
	C433.930756,314.075134 427.816986,314.065247 422.963409,312.228363 
	C418.096832,310.386536 412.979858,309.099670 408.313995,306.858795 
	C400.921967,303.308624 398.850647,296.750092 399.742676,289.017456 
	C400.550446,282.015503 404.881439,276.833069 411.131561,275.574463 
	C418.331390,274.124573 426.231689,274.021179 433.450897,275.362091 
	C441.684570,276.891479 446.283112,284.478149 446.065491,292.771912 
	C442.161621,292.771912 438.241699,292.771912 434.249512,292.771912 
	C429.197174,283.668976 423.392303,281.524170 415.197357,286.133972 
	C413.701630,286.975372 411.880829,288.932556 411.911835,290.337067 
	C411.945557,291.863770 413.658997,294.086060 415.174500,294.712860 
	C420.129364,296.762115 425.331421,298.211334 430.430939,299.913696 
	C436.697266,302.005493 443.023041,303.968750 446.180542,310.674683 
	C452.059296,323.159943 446.011292,338.385437 429.757263,339.969727 
	C423.051575,340.623352 415.844086,339.608185 409.323120,337.746643 
	C402.110901,335.687775 399.001923,329.070709 397.259827,322.085266 
	C397.084534,321.382294 397.091278,320.348969 397.487885,319.834808 
	C399.960144,316.629791 409.030670,317.554626 410.308136,321.329315 
	C413.503021,330.769501 424.760986,331.961182 430.747314,327.823853 
	C432.858765,326.364594 434.049744,323.573547 435.661163,321.018860 
z"/>
<path fill="#000000" opacity="1.000000" stroke="none" 
	d="
M180.629333,281.124756 
	C179.431274,273.909943 184.175034,275.306396 188.049652,274.932404 
	C192.532761,274.499603 193.285126,276.503296 193.229294,280.425171 
	C193.051514,292.913177 193.082504,305.408112 193.301056,317.895660 
	C193.381897,322.515198 194.920929,326.630676 199.768097,328.659912 
	C204.489639,330.636566 208.987961,330.623413 213.363831,327.771118 
	C217.641068,324.983185 217.560104,320.432007 217.637985,316.245453 
	C217.857925,304.424377 217.977707,292.588013 217.590698,280.775543 
	C217.429535,275.856995 219.417603,274.625610 223.640472,275.013184 
	C226.039032,275.233307 228.439301,275.434570 230.494690,275.614258 
	C230.494690,287.865692 230.717041,299.459351 230.420090,311.039642 
	C230.205856,319.394562 231.947220,328.716644 223.966537,334.677429 
	C220.344437,337.382874 215.623901,339.334076 211.158493,340.002136 
	C206.221039,340.740845 200.857071,340.276825 195.941864,339.169373 
	C186.032242,336.936615 180.947708,330.272705 180.786026,320.081757 
	C180.582642,307.260742 180.668579,294.435150 180.629333,281.124756 
z"/>
<path fill="#000000" opacity="1.000000" stroke="none" 
	d="
M123.982597,286.062103 
	C123.105095,275.015106 123.105095,275.015137 133.695236,275.015137 
	C145.357391,275.015137 157.021729,275.145233 168.680542,274.947815 
	C173.045166,274.873932 174.315063,276.445282 174.238464,280.764282 
	C174.166550,284.817108 173.203049,286.506775 168.900620,286.148743 
	C164.604645,285.791260 160.255676,286.070312 155.445480,286.070312 
	C155.351059,287.663391 155.195114,289.086639 155.193375,290.510071 
	C155.175705,305.004456 155.046051,319.501007 155.272705,333.991852 
	C155.335312,337.994141 154.132828,339.573792 150.165375,339.018280 
	C147.591705,338.657867 144.994888,338.462708 142.124924,337.762451 
	C141.841400,337.331421 141.684799,336.897797 141.684799,336.897797 
	C141.753098,320.901093 141.821381,304.904419 141.858307,288.027588 
	C140.693558,286.798218 139.567215,286.176666 138.425552,286.147125 
	C133.613724,286.022614 128.797318,286.074677 123.982597,286.062103 
z"/>
<path fill="#000000" opacity="1.000000" stroke="none" 
	d="
M243.806519,298.000061 
	C243.806000,291.517151 243.979553,285.527100 243.735352,279.554108 
	C243.602890,276.314514 244.800781,274.963898 247.909943,275.012115 
	C249.571457,275.037903 251.379059,274.610107 252.852570,275.136963 
	C254.182297,275.612488 256.118408,277.099823 256.128662,278.157043 
	C256.323608,298.240387 256.272461,318.326080 256.272461,338.409119 
	C255.538452,338.665771 255.093292,338.959290 254.650055,338.956390 
	C241.279968,338.869110 244.037643,340.636963 243.839417,328.414185 
	C243.677734,318.445221 243.806519,308.471558 243.806519,298.000061 
z"/>
<path fill="#FDF5E2" opacity="1.000000" stroke="none" 
	d="
M124.099571,286.446411 
	C128.797318,286.074677 133.613724,286.022614 138.425552,286.147125 
	C139.567215,286.176666 140.693558,286.798218 141.771301,287.566711 
	C137.390961,287.993073 133.062805,288.100800 128.743423,287.952972 
	C127.223442,287.901001 125.724884,287.222900 124.099571,286.446411 
z"/>
<path fill="#FDF5E2" opacity="1.000000" stroke="none" 
	d="
M141.452103,336.984558 
	C141.684799,336.897797 141.841400,337.331421 141.801865,337.558533 
	C141.581360,337.547516 141.400375,337.309448 141.452103,336.984558 
z"/>
<path fill="#000000" opacity="1.000000" stroke="none" 
	d="
M34.858028,193.263916 
	C36.981461,199.684433 38.929726,205.740601 40.931950,211.964508 
	C34.826580,211.964508 29.026127,211.964508 22.765312,211.964508 
	C25.671938,203.367508 28.477108,195.070572 31.798147,185.247833 
	C33.083889,188.658279 33.883377,190.778915 34.858028,193.263916 
z"/>
<path fill="#000000" opacity="1.000000" stroke="none" 
	d="
M412.712830,199.701523 
	C414.115784,195.165268 415.449951,191.026276 416.784119,186.887283 
	C417.188171,186.853882 417.592255,186.820480 417.996307,186.787079 
	C420.835663,194.928406 423.675018,203.069733 426.706940,211.763153 
	C420.401825,211.763153 414.756744,211.763153 408.456390,211.763153 
	C409.920685,207.684586 411.282379,203.891678 412.712830,199.701523 
z"/>
<path fill="#EDE4D3" opacity="1.000000" stroke="none" 
	d="
M343.478851,298.602600 
	C345.552368,289.651825 352.173462,284.034027 360.216370,284.163544 
	C367.715363,284.284302 375.071960,290.630463 376.099426,298.960724 
	C377.008667,306.332764 377.185303,313.266571 374.225342,320.257538 
	C371.779144,326.034973 367.411926,328.990479 361.623718,329.800598 
	C354.629181,330.779541 349.455963,327.445435 346.057434,321.508484 
	C342.009766,314.437592 341.749329,306.792145 343.478851,298.602600 
z"/>
<path fill="#EDE4D3" opacity="1.000000" stroke="none" 
	d="
M281.135132,307.000000 
	C281.135132,299.889282 281.135132,293.278473 281.135132,286.186493 
	C286.402496,286.186493 291.376862,285.743622 296.238464,286.294922 
	C302.796448,287.038605 307.237610,293.013702 307.601410,301.557770 
	C307.831970,306.972839 307.443085,312.466125 306.769653,317.854034 
	C306.019897,323.852539 301.250427,327.758545 295.206268,327.927765 
	C291.388672,328.034668 287.565979,327.970886 283.745667,327.961487 
	C283.094757,327.959900 282.444122,327.846619 281.135132,327.722534 
	C281.135132,320.976501 281.135132,314.238190 281.135132,307.000000 
z"/>
</svg>